<svg xmlns="http://www.w3.org/2000/svg" viewBox="756.42 722 16533.18 2147.95"><path d="m5930 970-320 180v270h-240v260h240v550c0 270 150 440 430 440h170v-270h-130c-100 0-150-70-150-190v-530h280v-260h-280V970Zm1310 240c230 0 390 140 470 360l310-110a770 770 0 00-780-560c-510 0-870 370-870 900s360 900 870 900c380 0 670-200 780-550l-310-120c-80 220-240 360-470 360-300 0-510-220-510-590s210-590 510-590Zm-2360 150c-140 0-270 60-350 200v-170h-320v1280h320v-750c0-180 110-280 260-280 130 0 230 100 230 260v770h320v-820c0-300-200-490-460-490ZM1580 930H910v1740h330v-600h350c410 0 650-220 650-560 0-350-240-580-660-580Zm-20 850h-320v-550h320c200 0 320 100 320 280s-120 270-320 270Zm6900 490V930h-320v1360c0 240 130 380 370 380h150v-270h-90c-80 0-110-50-110-130Zm-5570-910c-380 0-660 280-660 670 0 400 280 670 660 670s660-270 660-670c0-390-280-670-660-670Zm0 1060c-190 0-330-140-330-390 0-240 140-380 330-380s330 140 330 380c0 250-140 390-330 390Zm940-1520c-110 0-210 80-210 200s100 190 210 190 210-70 210-190-100-200-210-200Zm-160 1770h320V1410h-320v1260Zm5120 0h320V1410h-320v1260Zm3970-1460c220 0 390 140 470 360l310-110a770 770 0 00-780-560c-510 0-870 370-870 900s360 900 870 900c370 0 670-200 780-550l-310-120c-80 220-250 360-470 360-300 0-520-220-520-590s220-590 520-590Zm1420 150c-250 0-470 110-560 380l270 110c40-130 140-200 280-200 170 0 270 80 270 250v120c-80-70-190-120-340-120-310 0-510 160-510 400 0 250 190 400 490 400 170 0 300-50 380-150v120h300v-800c0-350-270-510-580-510Zm0 1110c-160 0-260-60-260-170s100-170 260-170 260 60 260 170-100 170-260 170Zm2120-1110c-360 0-620 270-620 670s260 670 640 670c260 0 490-130 580-420l-270-90c-60 170-170 240-320 240-170 0-290-100-310-330h900l10-70c0-400-250-670-610-670Zm-290 520c40-170 140-260 290-260s250 80 280 260h-570Zm-750-300v-190h-320v1280h320v-670c0-190 100-290 250-290h140v-350h-70c-140 0-250 70-320 220Zm-2500-370c220 0 390 140 470 360l310-110a770 770 0 00-780-560c-510 0-870 370-870 900s360 900 870 900c370 0 670-200 780-550l-310-120c-80 220-250 360-470 360-300 0-520-220-520-590s220-590 520-590Zm1420 150c-250 0-470 110-560 380l270 110c40-130 140-200 280-200 170 0 270 80 270 250v120c-80-70-190-120-340-120-310 0-510 160-510 400 0 250 190 400 490 400 170 0 300-50 380-150v120h300v-800c0-350-270-510-580-510Zm0 1110c-160 0-260-60-260-170s100-170 260-170 260 60 260 170-100 170-260 170Zm2120-1110c-360 0-620 270-620 670s260 670 640 670c260 0 490-130 580-420l-270-90c-60 170-170 240-320 240-170 0-290-100-310-330h900l10-70c0-400-250-670-610-670Zm-290 520c40-170 140-260 290-260s250 80 280 260h-570Zm-750-300v-190h-320v1280h320v-670c0-190 100-290 250-290h140v-350h-70c-140 0-250 70-320 220ZM8960 900c-120 0-210 80-210 200s90 190 210 190 200-70 200-190-90-200-200-200Zm2890 490h-390l-470 570V930h-320v1740h320v-630l480 630h390l-530-670 520-610Zm-1930 260c170 0 270 70 330 270l280-100c-80-320-320-460-610-460-360 0-640 270-640 670s280 670 640 670c290 0 530-140 610-450l-280-100c-60 190-160 270-330 270s-310-130-310-390 150-380 310-380Zm7040-500c-90 0-150 70-150 150s60 150 150 150 150-60 150-150-70-150-150-150Zm0 270c-70 0-120-50-120-120 0-60 50-110 120-110 60 0 110 50 110 110s-50 120-110 120Zm60-140c0-40-20-60-60-60h-60v160h40v-60h10l30 60h50l-40-60c20-10 30-20 30-40Zm-60 10h-20v-30h20l20 10c0 20 0 20-20 20Z"/></svg>